# xmcd
#
# Track frame offsets: 
#        150
#        28151
#        51410
#        75428
#        93347
#        116462
#        135680
#        152983
#        167453
#        192236
#
# Disc length: 2904 seconds
#
# Revision: 1
# Processed by: cddbd v1.5.2PL0 Copyright (c) Steve Scherf et al.
# Submitted via: ExactAudioCopy v0.95a5
#
DISCID=7b0b560a
DTITLE=Karin Krog and Steve Kuhn - Together Again
DYEAR=2005
DGENRE=Jazz
TTITLE0=Don't Let the Sun Catch You Crying
TTITLE1=I Thought About You
TTITLE2=Alfie
TTITLE3=Time on My Hands
TTITLE4=We'll be Together Again
TTITLE5=Wee Baby Blues
TTITLE6=Lazy Afternoon
TTITLE7=Time After Time
TTITLE8=Jim
TTITLE9=The Party is Over
EXTD=YEAR: 2005
EXTT0=
EXTT1=
EXTT2=
EXTT3=
EXTT4=
EXTT5=
EXTT6=
EXTT7=
EXTT8=
EXTT9=
PLAYORDER=
